<mxfile host="www.draw.io" modified="2019-10-15T06:12:27.896Z" agent="Mozilla/5.0 (X11; Ubuntu; Linux x86_64; rv:69.0) Gecko/20100101 Firefox/69.0" etag="qIBLaEcokUOSLo8G-YFi" version="12.1.1" type="github" pages="2">
  <diagram id="rwsDpPcG-9lv_OZG9mr8" name="Page-1">
    <mxGraphModel dx="1352" dy="825" grid="1" gridSize="10" guides="1" tooltips="1" connect="1" arrows="1" fold="1" page="1" pageScale="1" pageWidth="850" pageHeight="1100" math="0" shadow="0">
      <root>
        <mxCell id="0"/>
        <mxCell id="1" parent="0"/>
        <mxCell id="eR64O44cKoqNmbmQNhdG-1" style="edgeStyle=orthogonalEdgeStyle;rounded=0;orthogonalLoop=1;jettySize=auto;html=1;exitX=1;exitY=0.5;exitDx=0;exitDy=0;entryX=0;entryY=0.5;entryDx=0;entryDy=0;" edge="1" parent="1" source="eR64O44cKoqNmbmQNhdG-2" target="eR64O44cKoqNmbmQNhdG-4">
          <mxGeometry relative="1" as="geometry"/>
        </mxCell>
        <mxCell id="eR64O44cKoqNmbmQNhdG-2" value="minION" style="rounded=0;whiteSpace=wrap;html=1;" vertex="1" parent="1">
          <mxGeometry x="150" y="110" width="120" height="60" as="geometry"/>
        </mxCell>
        <mxCell id="eR64O44cKoqNmbmQNhdG-3" style="edgeStyle=orthogonalEdgeStyle;rounded=0;orthogonalLoop=1;jettySize=auto;html=1;exitX=1;exitY=0.5;exitDx=0;exitDy=0;entryX=0;entryY=0.5;entryDx=0;entryDy=0;" edge="1" parent="1" source="eR64O44cKoqNmbmQNhdG-4" target="eR64O44cKoqNmbmQNhdG-7">
          <mxGeometry relative="1" as="geometry">
            <Array as="points">
              <mxPoint x="550" y="140"/>
              <mxPoint x="550" y="140"/>
            </Array>
          </mxGeometry>
        </mxCell>
        <mxCell id="eR64O44cKoqNmbmQNhdG-4" value="minIT" style="rounded=0;whiteSpace=wrap;html=1;" vertex="1" parent="1">
          <mxGeometry x="390" y="110" width="120" height="60" as="geometry"/>
        </mxCell>
        <mxCell id="eR64O44cKoqNmbmQNhdG-5" style="edgeStyle=none;rounded=0;orthogonalLoop=1;jettySize=auto;html=1;exitX=0.75;exitY=1;exitDx=0;exitDy=0;entryX=0.75;entryY=0;entryDx=0;entryDy=0;" edge="1" parent="1" source="eR64O44cKoqNmbmQNhdG-7" target="eR64O44cKoqNmbmQNhdG-10">
          <mxGeometry relative="1" as="geometry"/>
        </mxCell>
        <mxCell id="eR64O44cKoqNmbmQNhdG-6" value="download dataset" style="text;html=1;resizable=0;points=[];align=center;verticalAlign=middle;labelBackgroundColor=#ffffff;" vertex="1" connectable="0" parent="eR64O44cKoqNmbmQNhdG-5">
          <mxGeometry x="-0.1338" y="-1" relative="1" as="geometry">
            <mxPoint y="-1" as="offset"/>
          </mxGeometry>
        </mxCell>
        <mxCell id="eR64O44cKoqNmbmQNhdG-7" value="server" style="rounded=0;whiteSpace=wrap;html=1;" vertex="1" parent="1">
          <mxGeometry x="600" y="110" width="120" height="60" as="geometry"/>
        </mxCell>
        <mxCell id="eR64O44cKoqNmbmQNhdG-8" style="edgeStyle=none;rounded=0;orthogonalLoop=1;jettySize=auto;html=1;exitX=0.25;exitY=0;exitDx=0;exitDy=0;entryX=0.25;entryY=1;entryDx=0;entryDy=0;" edge="1" parent="1" source="eR64O44cKoqNmbmQNhdG-10" target="eR64O44cKoqNmbmQNhdG-7">
          <mxGeometry relative="1" as="geometry"/>
        </mxCell>
        <mxCell id="eR64O44cKoqNmbmQNhdG-9" value="request a job" style="text;html=1;resizable=0;points=[];align=center;verticalAlign=middle;labelBackgroundColor=#ffffff;" vertex="1" connectable="0" parent="eR64O44cKoqNmbmQNhdG-8">
          <mxGeometry x="-0.1508" y="-2" relative="1" as="geometry">
            <mxPoint as="offset"/>
          </mxGeometry>
        </mxCell>
        <mxCell id="eR64O44cKoqNmbmQNhdG-10" value="mobile 1" style="rounded=0;whiteSpace=wrap;html=1;" vertex="1" parent="1">
          <mxGeometry x="320" y="330" width="120" height="60" as="geometry"/>
        </mxCell>
        <mxCell id="eR64O44cKoqNmbmQNhdG-11" style="edgeStyle=none;rounded=0;orthogonalLoop=1;jettySize=auto;html=1;exitX=0.5;exitY=0;exitDx=0;exitDy=0;entryX=0.981;entryY=1.055;entryDx=0;entryDy=0;entryPerimeter=0;strokeColor=none;" edge="1" parent="1" source="eR64O44cKoqNmbmQNhdG-12" target="eR64O44cKoqNmbmQNhdG-7">
          <mxGeometry relative="1" as="geometry"/>
        </mxCell>
        <mxCell id="eR64O44cKoqNmbmQNhdG-12" value="mobile n" style="rounded=0;whiteSpace=wrap;html=1;" vertex="1" parent="1">
          <mxGeometry x="690" y="330" width="120" height="60" as="geometry"/>
        </mxCell>
        <mxCell id="eR64O44cKoqNmbmQNhdG-13" value="" style="endArrow=classic;startArrow=classic;html=1;entryX=0.844;entryY=1.055;entryDx=0;entryDy=0;entryPerimeter=0;exitX=0.5;exitY=0;exitDx=0;exitDy=0;" edge="1" parent="1" source="eR64O44cKoqNmbmQNhdG-12" target="eR64O44cKoqNmbmQNhdG-7">
          <mxGeometry width="50" height="50" relative="1" as="geometry">
            <mxPoint x="150" y="460" as="sourcePoint"/>
            <mxPoint x="200" y="410" as="targetPoint"/>
          </mxGeometry>
        </mxCell>
        <mxCell id="eR64O44cKoqNmbmQNhdG-14" value="" style="endArrow=none;dashed=1;html=1;entryX=0;entryY=0.5;entryDx=0;entryDy=0;exitX=1;exitY=0.5;exitDx=0;exitDy=0;" edge="1" parent="1" source="eR64O44cKoqNmbmQNhdG-10" target="eR64O44cKoqNmbmQNhdG-12">
          <mxGeometry width="50" height="50" relative="1" as="geometry">
            <mxPoint x="150" y="460" as="sourcePoint"/>
            <mxPoint x="200" y="410" as="targetPoint"/>
          </mxGeometry>
        </mxCell>
        <mxCell id="eR64O44cKoqNmbmQNhdG-15" value="run pipeline" style="shape=mxgraph.bpmn.loop;html=1;outlineConnect=0;" vertex="1" parent="1">
          <mxGeometry x="366" y="400" width="34" height="30" as="geometry"/>
        </mxCell>
        <mxCell id="eR64O44cKoqNmbmQNhdG-16" value="create jobs" style="shape=mxgraph.bpmn.loop;html=1;outlineConnect=0;" vertex="1" parent="1">
          <mxGeometry x="723" y="125" width="34" height="30" as="geometry"/>
        </mxCell>
        <mxCell id="eR64O44cKoqNmbmQNhdG-17" value=".....mobiles in the network....." style="text;html=1;resizable=0;points=[];autosize=1;align=left;verticalAlign=top;spacingTop=-4;" vertex="1" parent="1">
          <mxGeometry x="484" y="337" width="170" height="20" as="geometry"/>
        </mxCell>
        <mxCell id="eR64O44cKoqNmbmQNhdG-18" value="raw signal data" style="text;html=1;resizable=0;points=[];autosize=1;align=left;verticalAlign=top;spacingTop=-4;" vertex="1" parent="1">
          <mxGeometry x="283" y="119" width="100" height="20" as="geometry"/>
        </mxCell>
        <mxCell id="eR64O44cKoqNmbmQNhdG-19" value="computer that runs minIT may host the server as well" style="text;html=1;strokeColor=none;fillColor=none;align=center;verticalAlign=middle;whiteSpace=wrap;rounded=0;" vertex="1" parent="1">
          <mxGeometry x="410" y="60" width="290" height="20" as="geometry"/>
        </mxCell>
        <mxCell id="eR64O44cKoqNmbmQNhdG-20" value="" style="endArrow=none;dashed=1;html=1;" edge="1" parent="1">
          <mxGeometry width="50" height="50" relative="1" as="geometry">
            <mxPoint x="339.9999999999998" y="199.9999999999999" as="sourcePoint"/>
            <mxPoint x="339.9999999999998" y="69" as="targetPoint"/>
          </mxGeometry>
        </mxCell>
        <mxCell id="eR64O44cKoqNmbmQNhdG-21" value="" style="endArrow=none;dashed=1;html=1;" edge="1" parent="1">
          <mxGeometry width="50" height="50" relative="1" as="geometry">
            <mxPoint x="779" y="201" as="sourcePoint"/>
            <mxPoint x="779" y="69.99999999999989" as="targetPoint"/>
          </mxGeometry>
        </mxCell>
        <mxCell id="eR64O44cKoqNmbmQNhdG-22" value="" style="endArrow=none;dashed=1;html=1;" edge="1" parent="1">
          <mxGeometry width="50" height="50" relative="1" as="geometry">
            <mxPoint x="339.9999999999998" y="199.9999999999999" as="sourcePoint"/>
            <mxPoint x="779.9999999999998" y="199.9999999999999" as="targetPoint"/>
          </mxGeometry>
        </mxCell>
        <mxCell id="eR64O44cKoqNmbmQNhdG-23" value="" style="endArrow=none;dashed=1;html=1;" edge="1" parent="1" target="eR64O44cKoqNmbmQNhdG-19">
          <mxGeometry width="50" height="50" relative="1" as="geometry">
            <mxPoint x="339.9999999999998" y="69.99999999999989" as="sourcePoint"/>
            <mxPoint x="390" y="70" as="targetPoint"/>
          </mxGeometry>
        </mxCell>
        <mxCell id="eR64O44cKoqNmbmQNhdG-24" value="" style="endArrow=none;dashed=1;html=1;" edge="1" parent="1" source="eR64O44cKoqNmbmQNhdG-19">
          <mxGeometry width="50" height="50" relative="1" as="geometry">
            <mxPoint x="350" y="80" as="sourcePoint"/>
            <mxPoint x="779.9999999999998" y="69.99999999999989" as="targetPoint"/>
          </mxGeometry>
        </mxCell>
        <mxCell id="eR64O44cKoqNmbmQNhdG-25" value="mobile can run the pipeline in real time or when it is idle ex:charging" style="text;html=1;strokeColor=none;fillColor=none;align=center;verticalAlign=middle;whiteSpace=wrap;rounded=0;" vertex="1" parent="1">
          <mxGeometry x="400" y="430" width="350" height="20" as="geometry"/>
        </mxCell>
        <mxCell id="eR64O44cKoqNmbmQNhdG-26" value="&lt;div&gt;base called&lt;/div&gt;&lt;div&gt;data files&lt;br&gt;&lt;/div&gt;" style="text;html=1;resizable=0;points=[];autosize=1;align=left;verticalAlign=top;spacingTop=-4;" vertex="1" parent="1">
          <mxGeometry x="523" y="123" width="80" height="30" as="geometry"/>
        </mxCell>
      </root>
    </mxGraphModel>
  </diagram>
  <diagram id="xXr-k5nbuz4WcY0yeC-U" name="Page-2">
    <mxGraphModel dx="1159" dy="707" grid="1" gridSize="10" guides="1" tooltips="1" connect="1" arrows="1" fold="1" page="1" pageScale="1" pageWidth="850" pageHeight="1100" math="0" shadow="0">
      <root>
        <mxCell id="0ap0NxwxWkgAkii95-62-0"/>
        <mxCell id="0ap0NxwxWkgAkii95-62-1" parent="0ap0NxwxWkgAkii95-62-0"/>
        <mxCell id="0ap0NxwxWkgAkii95-62-2" value="Start" style="ellipse;whiteSpace=wrap;html=1;" vertex="1" parent="0ap0NxwxWkgAkii95-62-1">
          <mxGeometry x="371" y="60" width="90" height="40" as="geometry"/>
        </mxCell>
        <mxCell id="0ap0NxwxWkgAkii95-62-59" style="edgeStyle=orthogonalEdgeStyle;orthogonalLoop=1;jettySize=auto;html=1;exitX=0;exitY=0.5;exitDx=0;exitDy=0;entryX=0.446;entryY=0.016;entryDx=0;entryDy=0;entryPerimeter=0;rounded=1;" edge="1" parent="0ap0NxwxWkgAkii95-62-1" source="0ap0NxwxWkgAkii95-62-3" target="0ap0NxwxWkgAkii95-62-4">
          <mxGeometry relative="1" as="geometry"/>
        </mxCell>
        <mxCell id="0ap0NxwxWkgAkii95-62-67" style="edgeStyle=orthogonalEdgeStyle;rounded=1;orthogonalLoop=1;jettySize=auto;html=1;exitX=1;exitY=0.5;exitDx=0;exitDy=0;entryX=0.5;entryY=0;entryDx=0;entryDy=0;" edge="1" parent="0ap0NxwxWkgAkii95-62-1" source="0ap0NxwxWkgAkii95-62-3" target="0ap0NxwxWkgAkii95-62-28">
          <mxGeometry relative="1" as="geometry"/>
        </mxCell>
        <mxCell id="0ap0NxwxWkgAkii95-62-3" value="mode?" style="rhombus;whiteSpace=wrap;html=1;" vertex="1" parent="0ap0NxwxWkgAkii95-62-1">
          <mxGeometry x="376" y="140" width="80" height="80" as="geometry"/>
        </mxCell>
        <mxCell id="0ap0NxwxWkgAkii95-62-4" value="Show pipeline GUI to&lt;br&gt;select steps" style="shape=parallelogram;perimeter=parallelogramPerimeter;whiteSpace=wrap;html=1;" vertex="1" parent="0ap0NxwxWkgAkii95-62-1">
          <mxGeometry x="159.5" y="225" width="190" height="60" as="geometry"/>
        </mxCell>
        <mxCell id="0ap0NxwxWkgAkii95-62-5" value="Create Pipeline Object" style="rounded=0;whiteSpace=wrap;html=1;" vertex="1" parent="0ap0NxwxWkgAkii95-62-1">
          <mxGeometry x="183.5" y="325" width="120" height="60" as="geometry"/>
        </mxCell>
        <mxCell id="0ap0NxwxWkgAkii95-62-6" value="Show configuration for&lt;br&gt;step" style="shape=parallelogram;perimeter=parallelogramPerimeter;whiteSpace=wrap;html=1;" vertex="1" parent="0ap0NxwxWkgAkii95-62-1">
          <mxGeometry x="153.5" y="425" width="180" height="60" as="geometry"/>
        </mxCell>
        <mxCell id="0ap0NxwxWkgAkii95-62-7" value="Update Pipeline Object" style="rounded=0;whiteSpace=wrap;html=1;" vertex="1" parent="0ap0NxwxWkgAkii95-62-1">
          <mxGeometry x="183.5" y="525" width="120" height="60" as="geometry"/>
        </mxCell>
        <mxCell id="0ap0NxwxWkgAkii95-62-8" value="" style="endArrow=classic;html=1;exitX=0.441;exitY=1.03;exitDx=0;exitDy=0;exitPerimeter=0;entryX=0.5;entryY=0;entryDx=0;entryDy=0;" edge="1" parent="0ap0NxwxWkgAkii95-62-1" source="0ap0NxwxWkgAkii95-62-4" target="0ap0NxwxWkgAkii95-62-5">
          <mxGeometry width="50" height="50" relative="1" as="geometry">
            <mxPoint x="343.5" y="305" as="sourcePoint"/>
            <mxPoint x="393.5" y="255" as="targetPoint"/>
          </mxGeometry>
        </mxCell>
        <mxCell id="0ap0NxwxWkgAkii95-62-9" value="" style="endArrow=classic;html=1;exitX=0.5;exitY=1;exitDx=0;exitDy=0;entryX=0.5;entryY=0;entryDx=0;entryDy=0;" edge="1" parent="0ap0NxwxWkgAkii95-62-1" source="0ap0NxwxWkgAkii95-62-5" target="0ap0NxwxWkgAkii95-62-6">
          <mxGeometry width="50" height="50" relative="1" as="geometry">
            <mxPoint x="253.28999999999996" y="296.79999999999995" as="sourcePoint"/>
            <mxPoint x="253.5" y="335" as="targetPoint"/>
          </mxGeometry>
        </mxCell>
        <mxCell id="0ap0NxwxWkgAkii95-62-10" value="" style="endArrow=classic;html=1;exitX=0.5;exitY=1;exitDx=0;exitDy=0;entryX=0.5;entryY=0;entryDx=0;entryDy=0;" edge="1" parent="0ap0NxwxWkgAkii95-62-1" source="0ap0NxwxWkgAkii95-62-6" target="0ap0NxwxWkgAkii95-62-7">
          <mxGeometry width="50" height="50" relative="1" as="geometry">
            <mxPoint x="253.5" y="395" as="sourcePoint"/>
            <mxPoint x="253.5" y="435" as="targetPoint"/>
          </mxGeometry>
        </mxCell>
        <mxCell id="0ap0NxwxWkgAkii95-62-71" style="edgeStyle=orthogonalEdgeStyle;rounded=1;orthogonalLoop=1;jettySize=auto;html=1;exitX=0.5;exitY=1;exitDx=0;exitDy=0;entryX=0;entryY=0.5;entryDx=0;entryDy=0;" edge="1" parent="0ap0NxwxWkgAkii95-62-1" source="0ap0NxwxWkgAkii95-62-12" target="0ap0NxwxWkgAkii95-62-61">
          <mxGeometry relative="1" as="geometry">
            <Array as="points">
              <mxPoint x="244" y="724"/>
              <mxPoint x="440" y="724"/>
              <mxPoint x="440" y="494"/>
            </Array>
          </mxGeometry>
        </mxCell>
        <mxCell id="0ap0NxwxWkgAkii95-62-72" style="edgeStyle=orthogonalEdgeStyle;rounded=1;orthogonalLoop=1;jettySize=auto;html=1;exitX=1;exitY=0.5;exitDx=0;exitDy=0;entryX=1;entryY=0.5;entryDx=0;entryDy=0;" edge="1" parent="0ap0NxwxWkgAkii95-62-1" source="0ap0NxwxWkgAkii95-62-12" target="0ap0NxwxWkgAkii95-62-6">
          <mxGeometry relative="1" as="geometry">
            <Array as="points">
              <mxPoint x="340" y="660"/>
              <mxPoint x="340" y="454"/>
            </Array>
          </mxGeometry>
        </mxCell>
        <mxCell id="0ap0NxwxWkgAkii95-62-12" value="all steps configured?" style="rhombus;whiteSpace=wrap;html=1;" vertex="1" parent="0ap0NxwxWkgAkii95-62-1">
          <mxGeometry x="193.5" y="615" width="100" height="90" as="geometry"/>
        </mxCell>
        <mxCell id="0ap0NxwxWkgAkii95-62-16" value="" style="endArrow=classic;html=1;exitX=0.5;exitY=1;exitDx=0;exitDy=0;entryX=0.5;entryY=0;entryDx=0;entryDy=0;" edge="1" parent="0ap0NxwxWkgAkii95-62-1" source="0ap0NxwxWkgAkii95-62-7" target="0ap0NxwxWkgAkii95-62-12">
          <mxGeometry width="50" height="50" relative="1" as="geometry">
            <mxPoint x="253.5" y="495" as="sourcePoint"/>
            <mxPoint x="253.5" y="535" as="targetPoint"/>
          </mxGeometry>
        </mxCell>
        <mxCell id="0ap0NxwxWkgAkii95-62-23" value="" style="endArrow=classic;html=1;entryX=0.5;entryY=0;entryDx=0;entryDy=0;exitX=0.5;exitY=1;exitDx=0;exitDy=0;" edge="1" parent="0ap0NxwxWkgAkii95-62-1" source="0ap0NxwxWkgAkii95-62-2" target="0ap0NxwxWkgAkii95-62-3">
          <mxGeometry width="50" height="50" relative="1" as="geometry">
            <mxPoint x="150" y="180" as="sourcePoint"/>
            <mxPoint x="200" y="130" as="targetPoint"/>
          </mxGeometry>
        </mxCell>
        <mxCell id="0ap0NxwxWkgAkii95-62-65" style="edgeStyle=orthogonalEdgeStyle;rounded=1;orthogonalLoop=1;jettySize=auto;html=1;exitX=0.5;exitY=1;exitDx=0;exitDy=0;entryX=0.5;entryY=0;entryDx=0;entryDy=0;" edge="1" parent="0ap0NxwxWkgAkii95-62-1" source="0ap0NxwxWkgAkii95-62-28" target="0ap0NxwxWkgAkii95-62-60">
          <mxGeometry relative="1" as="geometry"/>
        </mxCell>
        <mxCell id="0ap0NxwxWkgAkii95-62-28" value="Show network configuration" style="shape=rectangle;perimeter=parallelogramPerimeter;whiteSpace=wrap;html=1;" vertex="1" parent="0ap0NxwxWkgAkii95-62-1">
          <mxGeometry x="525.5" y="240" width="120" height="60" as="geometry"/>
        </mxCell>
        <mxCell id="0ap0NxwxWkgAkii95-62-49" value="Standalone" style="text;html=1;strokeColor=none;fillColor=none;align=center;verticalAlign=middle;whiteSpace=wrap;rounded=0;" vertex="1" parent="0ap0NxwxWkgAkii95-62-1">
          <mxGeometry x="309.5" y="149" width="40" height="20" as="geometry"/>
        </mxCell>
        <mxCell id="0ap0NxwxWkgAkii95-62-51" value="connect to minIT" style="text;html=1;strokeColor=none;fillColor=none;align=center;verticalAlign=middle;whiteSpace=wrap;rounded=0;" vertex="1" parent="0ap0NxwxWkgAkii95-62-1">
          <mxGeometry x="483" y="151" width="93" height="20" as="geometry"/>
        </mxCell>
        <mxCell id="0ap0NxwxWkgAkii95-62-57" value="no" style="text;html=1;strokeColor=none;fillColor=none;align=center;verticalAlign=middle;whiteSpace=wrap;rounded=0;" vertex="1" parent="0ap0NxwxWkgAkii95-62-1">
          <mxGeometry x="332.5" y="545" width="40" height="20" as="geometry"/>
        </mxCell>
        <mxCell id="0ap0NxwxWkgAkii95-62-58" value="yes" style="text;html=1;strokeColor=none;fillColor=none;align=center;verticalAlign=middle;whiteSpace=wrap;rounded=0;" vertex="1" parent="0ap0NxwxWkgAkii95-62-1">
          <mxGeometry x="267.5" y="705" width="40" height="20" as="geometry"/>
        </mxCell>
        <mxCell id="0ap0NxwxWkgAkii95-62-68" style="edgeStyle=orthogonalEdgeStyle;rounded=1;orthogonalLoop=1;jettySize=auto;html=1;exitX=0.5;exitY=1;exitDx=0;exitDy=0;entryX=0.5;entryY=0;entryDx=0;entryDy=0;" edge="1" parent="0ap0NxwxWkgAkii95-62-1" source="0ap0NxwxWkgAkii95-62-60" target="0ap0NxwxWkgAkii95-62-61">
          <mxGeometry relative="1" as="geometry"/>
        </mxCell>
        <mxCell id="0ap0NxwxWkgAkii95-62-60" value="Wait for the pipeline object" style="rounded=0;whiteSpace=wrap;html=1;" vertex="1" parent="0ap0NxwxWkgAkii95-62-1">
          <mxGeometry x="525.5" y="360" width="120" height="60" as="geometry"/>
        </mxCell>
        <mxCell id="0ap0NxwxWkgAkii95-62-69" style="edgeStyle=orthogonalEdgeStyle;rounded=1;orthogonalLoop=1;jettySize=auto;html=1;exitX=0.5;exitY=1;exitDx=0;exitDy=0;entryX=0.5;entryY=0;entryDx=0;entryDy=0;" edge="1" parent="0ap0NxwxWkgAkii95-62-1" source="0ap0NxwxWkgAkii95-62-61" target="0ap0NxwxWkgAkii95-62-62">
          <mxGeometry relative="1" as="geometry"/>
        </mxCell>
        <mxCell id="0ap0NxwxWkgAkii95-62-61" value="Execute the selected steps" style="rounded=0;whiteSpace=wrap;html=1;" vertex="1" parent="0ap0NxwxWkgAkii95-62-1">
          <mxGeometry x="525.5" y="465" width="120" height="60" as="geometry"/>
        </mxCell>
        <mxCell id="0ap0NxwxWkgAkii95-62-70" style="edgeStyle=orthogonalEdgeStyle;rounded=1;orthogonalLoop=1;jettySize=auto;html=1;exitX=0.5;exitY=1;exitDx=0;exitDy=0;entryX=0.5;entryY=0;entryDx=0;entryDy=0;" edge="1" parent="0ap0NxwxWkgAkii95-62-1" source="0ap0NxwxWkgAkii95-62-62" target="0ap0NxwxWkgAkii95-62-63">
          <mxGeometry relative="1" as="geometry"/>
        </mxCell>
        <mxCell id="0ap0NxwxWkgAkii95-62-62" value="Show the output" style="shape=parallelogram;perimeter=parallelogramPerimeter;whiteSpace=wrap;html=1;" vertex="1" parent="0ap0NxwxWkgAkii95-62-1">
          <mxGeometry x="525.5" y="565" width="120" height="60" as="geometry"/>
        </mxCell>
        <mxCell id="0ap0NxwxWkgAkii95-62-63" value="Stop" style="ellipse;whiteSpace=wrap;html=1;" vertex="1" parent="0ap0NxwxWkgAkii95-62-1">
          <mxGeometry x="545.5" y="665" width="80" height="40" as="geometry"/>
        </mxCell>
      </root>
    </mxGraphModel>
  </diagram>
</mxfile>
